<svg width="307" height="307" viewBox="0 0 307 307" fill="none" xmlns="http://www.w3.org/2000/svg">
<path d="M220.798 81.1993C236.327 88.387 246.436 103.76 246.881 120.866L247.594 148.259L250.06 175.55C251.6 192.593 243.34 209.033 228.749 217.972L205.382 232.286L182.98 248.067C168.991 257.922 150.623 258.989 135.587 250.822L111.507 237.743L86.6391 226.233C71.1102 219.045 61.0017 203.672 60.5564 186.566L59.8434 159.173L57.3777 131.882C55.8379 114.839 64.0971 98.3986 78.6887 89.46L102.055 75.1459L124.457 59.365C138.446 49.5104 156.814 48.4426 171.851 56.61L195.931 69.689L220.798 81.1993Z" fill="#F9FAFB"/>
<g filter="url(#filter0_f_9691_5399)">
<rect x="89.6626" y="100.139" width="132.75" height="96.75" rx="15" transform="rotate(15 89.6626 100.139)" fill="#CECDD7" fill-opacity="0.4"/>
</g>
<rect x="115.505" y="23.9824" width="122.25" height="165.75" rx="15" transform="rotate(15 115.505 23.9824)" fill="white"/>
<g filter="url(#filter1_f_9691_5399)">
<rect x="85.1948" y="160.281" width="109.5" height="23.25" rx="11.625" transform="rotate(15 85.1948 160.281)" fill="#A2A1B5" fill-opacity="0.42"/>
</g>
<rect x="112.446" y="16.5628" width="132" height="165" rx="14.625" transform="rotate(15 112.446 16.5628)" fill="white" stroke="#EFEFEF" stroke-width="0.75"/>
<circle cx="152.892" cy="113.402" r="33.75" fill="#96A4E9"/>
<g clip-path="url(#clip0_9691_5399)">
<path d="M166.711 103.625C166.711 103.081 166.495 102.559 166.11 102.175C165.726 101.79 165.204 101.574 164.66 101.574H140.051C139.507 101.574 138.985 101.79 138.601 102.175C138.216 102.559 138 103.081 138 103.625V105.417H166.711V103.625Z" fill="white"/>
<path d="M155.109 112.843C155.11 112.144 155.388 111.474 155.883 110.979C156.377 110.485 157.047 110.207 157.746 110.206C158.555 110.207 159.343 109.956 160.002 109.487L160.907 108.843C161.353 108.526 161.887 108.356 162.434 108.356C162.981 108.356 163.514 108.526 163.961 108.843L164.865 109.487C165.41 109.876 166.046 110.117 166.711 110.187V107.174H138V119.458C138 120.002 138.216 120.524 138.601 120.908C138.985 121.293 139.507 121.509 140.051 121.509H156.31C155.52 120.065 155.107 118.445 155.109 116.8V112.843ZM142.013 111.289H142.587C142.703 111.289 142.817 111.312 142.924 111.356C143.03 111.4 143.127 111.465 143.209 111.546C143.29 111.628 143.355 111.725 143.399 111.831C143.443 111.938 143.466 112.052 143.466 112.168C143.466 112.283 143.443 112.397 143.399 112.504C143.355 112.611 143.29 112.708 143.209 112.789C143.127 112.871 143.03 112.936 142.924 112.98C142.817 113.024 142.703 113.047 142.587 113.047H142.013C141.898 113.047 141.783 113.024 141.677 112.98C141.57 112.936 141.473 112.871 141.392 112.789C141.31 112.708 141.245 112.611 141.201 112.504C141.157 112.397 141.134 112.283 141.134 112.168C141.134 112.052 141.157 111.938 141.201 111.831C141.245 111.725 141.31 111.628 141.392 111.546C141.473 111.465 141.57 111.4 141.677 111.356C141.783 111.312 141.898 111.289 142.013 111.289ZM149.535 116.808H142.013C141.78 116.808 141.556 116.715 141.392 116.55C141.227 116.386 141.134 116.162 141.134 115.929C141.134 115.696 141.227 115.472 141.392 115.307C141.556 115.143 141.78 115.05 142.013 115.05H149.535C149.768 115.05 149.991 115.143 150.156 115.307C150.321 115.472 150.414 115.696 150.414 115.929C150.414 116.162 150.321 116.386 150.156 116.55C149.991 116.715 149.768 116.808 149.535 116.808ZM149.535 113.047H146.035C145.802 113.047 145.578 112.954 145.413 112.789C145.249 112.624 145.156 112.401 145.156 112.168C145.156 111.935 145.249 111.711 145.413 111.546C145.578 111.381 145.802 111.289 146.035 111.289H149.535C149.768 111.289 149.991 111.381 150.156 111.546C150.321 111.711 150.414 111.935 150.414 112.168C150.414 112.401 150.321 112.624 150.156 112.789C149.991 112.954 149.768 113.047 149.535 113.047Z" fill="white"/>
<path d="M167.121 111.965C165.948 111.967 164.804 111.603 163.848 110.922L162.942 110.277C162.794 110.172 162.616 110.115 162.434 110.115C162.251 110.115 162.074 110.172 161.925 110.277L161.019 110.922C160.064 111.603 158.919 111.967 157.746 111.965C157.513 111.965 157.289 112.058 157.125 112.223C156.96 112.388 156.867 112.611 156.867 112.844V116.801C156.867 118.449 157.371 120.057 158.311 121.41C159.251 122.764 160.583 123.797 162.127 124.371C162.325 124.445 162.542 124.445 162.74 124.371C164.284 123.797 165.616 122.764 166.556 121.41C167.496 120.057 168 118.449 168 116.801V112.844C168 112.611 167.907 112.388 167.743 112.223C167.578 112.058 167.354 111.965 167.121 111.965ZM164.851 116.644L162.722 119.061C162.639 119.155 162.538 119.23 162.424 119.281C162.311 119.332 162.187 119.359 162.062 119.359C161.938 119.359 161.814 119.332 161.701 119.281C161.587 119.23 161.485 119.155 161.403 119.061L160.016 117.487C159.94 117.401 159.881 117.3 159.844 117.191C159.807 117.081 159.791 116.966 159.798 116.851C159.813 116.618 159.92 116.401 160.095 116.247C160.27 116.092 160.499 116.014 160.732 116.029C160.964 116.044 161.181 116.15 161.336 116.325L162.062 117.15L163.532 115.482C163.686 115.307 163.903 115.201 164.136 115.186C164.368 115.171 164.597 115.249 164.772 115.403C164.947 115.557 165.054 115.775 165.069 116.007C165.084 116.24 165.005 116.469 164.851 116.644Z" fill="white"/>
</g>
<defs>
<filter id="filter0_f_9691_5399" x="30.4893" y="66.0059" width="221.533" height="196.076" filterUnits="userSpaceOnUse" color-interpolation-filters="sRGB">
<feFlood flood-opacity="0" result="BackgroundImageFix"/>
<feBlend mode="normal" in="SourceGraphic" in2="BackgroundImageFix" result="shape"/>
<feGaussianBlur stdDeviation="18.75" result="effect1_foregroundBlur_9691_5399"/>
</filter>
<filter id="filter1_f_9691_5399" x="44.2871" y="125.391" width="181.567" height="120.58" filterUnits="userSpaceOnUse" color-interpolation-filters="sRGB">
<feFlood flood-opacity="0" result="BackgroundImageFix"/>
<feBlend mode="normal" in="SourceGraphic" in2="BackgroundImageFix" result="shape"/>
<feGaussianBlur stdDeviation="18.75" result="effect1_foregroundBlur_9691_5399"/>
</filter>
<clipPath id="clip0_9691_5399">
<rect width="30" height="30" fill="white" transform="translate(138 98)"/>
</clipPath>
</defs>
</svg>
