<svg width="307" height="307" viewBox="0 0 307 307" fill="none" xmlns="http://www.w3.org/2000/svg">
<path d="M220.798 81.1993C236.327 88.387 246.436 103.76 246.881 120.866L247.594 148.259L250.06 175.55C251.6 192.593 243.34 209.033 228.749 217.972L205.382 232.286L182.98 248.067C168.991 257.922 150.623 258.989 135.587 250.822L111.507 237.743L86.6391 226.233C71.1102 219.045 61.0017 203.672 60.5564 186.566L59.8434 159.173L57.3777 131.882C55.8379 114.839 64.0971 98.3986 78.6887 89.46L102.055 75.1459L124.457 59.365C138.446 49.5104 156.814 48.4426 171.851 56.61L195.931 69.689L220.798 81.1993Z" fill="#F9FAFB"/>
<g filter="url(#filter0_f_9691_5381)">
<rect x="87.1431" y="134.494" width="132.75" height="96.75" rx="15" transform="rotate(-15 87.1431 134.494)" fill="#CECDD7" fill-opacity="0.4"/>
</g>
<rect x="71.4429" y="55.6211" width="122.25" height="165.75" rx="15" transform="rotate(-15 71.4429 55.6211)" fill="white"/>
<g filter="url(#filter1_f_9691_5381)">
<rect x="113.343" y="188.814" width="109.5" height="23.25" rx="11.625" transform="rotate(-15 113.343 188.814)" fill="#A2A1B5" fill-opacity="0.42"/>
</g>
<rect x="65.0848" y="50.7241" width="132" height="165" rx="14.625" transform="rotate(-15 65.0848 50.7241)" fill="white" stroke="#EFEFEF" stroke-width="0.75"/>
<circle cx="152.893" cy="113.4" r="33.75" fill="#FC8E6A"/>
<path d="M155.075 113.76L151.95 116.89L150.925 115.865C150.73 115.67 150.415 115.67 150.22 115.865C150.025 116.06 150.025 116.38 150.22 116.575L151.595 117.95C151.695 118.045 151.82 118.095 151.95 118.095C152.075 118.095 152.205 118.045 152.3 117.95L155.78 114.47C155.975 114.275 155.975 113.96 155.78 113.76C155.585 113.565 155.27 113.565 155.075 113.76Z" fill="white"/>
<path d="M164.87 112.87C165.065 112.675 165.065 112.36 164.87 112.165L163.245 110.535L161.675 108.965V101C161.675 100.72 161.45 100.5 161.175 100.5H157.925C157.65 100.5 157.425 100.72 157.425 101V104.715L153.355 100.645C153.165 100.46 152.835 100.46 152.645 100.645L142.755 110.535L141.13 112.165C140.935 112.36 140.935 112.675 141.13 112.87C141.225 112.97 141.355 113.015 141.485 113.015C141.61 113.015 141.74 112.97 141.835 112.87L142.61 112.095V122.975C142.61 124.365 143.74 125.5 145.13 125.5H160.87C162.26 125.5 163.39 124.365 163.39 122.975V112.095L164.165 112.87C164.36 113.065 164.675 113.065 164.87 112.87ZM153 121.205C150.05 121.205 147.65 118.805 147.65 115.855C147.65 112.905 150.05 110.505 153 110.505C155.95 110.505 158.35 112.905 158.35 115.855C158.35 118.805 155.95 121.205 153 121.205Z" fill="white"/>
<defs>
<filter id="filter0_f_9691_5381" x="53.0107" y="66.0039" width="221.532" height="196.076" filterUnits="userSpaceOnUse" color-interpolation-filters="sRGB">
<feFlood flood-opacity="0" result="BackgroundImageFix"/>
<feBlend mode="normal" in="SourceGraphic" in2="BackgroundImageFix" result="shape"/>
<feGaussianBlur stdDeviation="18.75" result="effect1_foregroundBlur_9691_5381"/>
</filter>
<filter id="filter1_f_9691_5381" x="78.4531" y="125.584" width="181.567" height="120.578" filterUnits="userSpaceOnUse" color-interpolation-filters="sRGB">
<feFlood flood-opacity="0" result="BackgroundImageFix"/>
<feBlend mode="normal" in="SourceGraphic" in2="BackgroundImageFix" result="shape"/>
<feGaussianBlur stdDeviation="18.75" result="effect1_foregroundBlur_9691_5381"/>
</filter>
</defs>
</svg>
