<svg width="307" height="307" viewBox="0 0 307 307" fill="none" xmlns="http://www.w3.org/2000/svg">
<path d="M220.798 81.1993C236.327 88.387 246.436 103.76 246.881 120.866L247.594 148.259L250.06 175.55C251.6 192.593 243.34 209.033 228.749 217.972L205.382 232.286L182.98 248.067C168.991 257.922 150.623 258.989 135.587 250.822L111.507 237.743L86.6391 226.233C71.1102 219.045 61.0017 203.672 60.5564 186.566L59.8434 159.173L57.3777 131.882C55.8379 114.839 64.0971 98.3986 78.6887 89.46L102.055 75.1459L124.457 59.365C138.446 49.5104 156.814 48.4426 171.851 56.61L195.931 69.689L220.798 81.1993Z" fill="#F9FAFB"/>
<g filter="url(#filter0_f_10403_11349)">
<rect x="89.6626" y="100.139" width="132.75" height="96.75" rx="15" transform="rotate(15 89.6626 100.139)" fill="#CECDD7" fill-opacity="0.4"/>
</g>
<rect x="115.505" y="23.9824" width="122.25" height="165.75" rx="15" transform="rotate(15 115.505 23.9824)" fill="white"/>
<g filter="url(#filter1_f_10403_11349)">
<rect x="85.1948" y="160.281" width="109.5" height="23.25" rx="11.625" transform="rotate(15 85.1948 160.281)" fill="#A2A1B5" fill-opacity="0.42"/>
</g>
<rect x="112.446" y="16.5628" width="132" height="165" rx="14.625" transform="rotate(15 112.446 16.5628)" fill="white" stroke="#EFEFEF" stroke-width="0.75"/>
<circle cx="152.892" cy="113.402" r="33.75" fill="#96A4E9"/>
<g clip-path="url(#clip0_10403_11349)">
<path d="M165.908 122.039C166.121 122.29 166.235 122.61 166.231 122.939C166.231 124 165.408 124.157 164.651 124.302C164.513 124.327 164.378 124.353 164.282 124.374L151.118 127.184C150.607 127.3 150.074 127.271 149.578 127.102C149.091 126.933 148.639 126.622 148.239 126.176L144.945 122.491C144.905 122.439 144.854 122.396 144.795 122.367C144.736 122.337 144.671 122.322 144.605 122.322H142.464V113.979L146.678 113.586C147.214 113.536 147.725 113.554 148.193 113.682C148.673 113.814 149.111 114.069 149.462 114.423L154.699 119.582C155.046 119.923 155.239 120.403 155.271 120.9C155.31 121.403 155.168 121.904 154.872 122.312C154.824 122.375 154.773 122.434 154.718 122.49C154.469 122.75 154.135 122.911 153.777 122.944C153.425 122.972 153.075 122.868 152.795 122.652C152.736 122.608 152.68 122.561 152.628 122.509L149.489 119.416C149.45 119.376 149.403 119.344 149.352 119.322C149.3 119.301 149.245 119.289 149.189 119.289C149.133 119.289 149.077 119.3 149.026 119.321C148.974 119.343 148.927 119.375 148.888 119.415C148.849 119.454 148.818 119.502 148.797 119.554C148.776 119.606 148.766 119.661 148.767 119.717C148.768 119.773 148.78 119.828 148.803 119.88C148.825 119.931 148.858 119.977 148.898 120.016L152.039 123.108C152.117 123.186 152.2 123.257 152.288 123.323C152.731 123.665 153.285 123.829 153.842 123.784C154.403 123.736 154.927 123.486 155.318 123.081C155.399 122.999 155.474 122.912 155.543 122.819C155.688 122.627 155.808 122.416 155.898 122.192L165.195 121.696C165.331 121.698 165.466 121.731 165.589 121.79C165.712 121.849 165.821 121.934 165.908 122.039ZM144.397 106.867C144.211 107.053 144.084 107.291 144.032 107.549C143.981 107.808 144.007 108.076 144.108 108.32C144.209 108.563 144.38 108.771 144.599 108.918C144.818 109.065 145.076 109.143 145.34 109.143H146.361V110.163C146.361 110.516 146.501 110.855 146.751 111.106C147.001 111.356 147.341 111.496 147.694 111.496C148.048 111.496 148.387 111.356 148.637 111.106C148.887 110.855 149.028 110.516 149.028 110.163V109.143H150.048C150.4 109.141 150.737 108.999 150.985 108.749C151.233 108.499 151.372 108.162 151.372 107.809C151.372 107.457 151.233 107.119 150.985 106.869C150.737 106.62 150.4 106.478 150.048 106.476H149.028V105.454C149.028 105.101 148.887 104.762 148.637 104.511C148.387 104.261 148.048 104.121 147.694 104.121C147.341 104.121 147.001 104.261 146.751 104.511C146.501 104.762 146.361 105.101 146.361 105.454V106.476H145.34C144.986 106.476 144.647 106.617 144.397 106.867ZM143.651 104.787V103.766H144.672C145.025 103.766 145.364 103.625 145.614 103.375C145.864 103.125 146.005 102.786 146.005 102.433C146.005 102.079 145.864 101.74 145.614 101.49C145.364 101.24 145.025 101.1 144.672 101.1H143.651V100.079C143.648 99.7266 143.507 99.3896 143.257 99.1414C143.007 98.8932 142.669 98.7539 142.317 98.7539C141.965 98.7539 141.627 98.8932 141.377 99.1414C141.127 99.3896 140.986 99.7266 140.983 100.079V101.1H139.964C139.61 101.1 139.271 101.24 139.021 101.49C138.771 101.74 138.631 102.079 138.631 102.433C138.631 102.786 138.771 103.125 139.021 103.375C139.271 103.625 139.61 103.766 139.964 103.766H140.983V104.787C140.986 105.139 141.127 105.476 141.377 105.724C141.627 105.972 141.965 106.112 142.317 106.112C142.669 106.112 143.007 105.972 143.257 105.724C143.507 105.476 143.648 105.139 143.651 104.787V104.787ZM150.85 104.389H151.87V105.408C151.87 105.762 152.01 106.101 152.26 106.351C152.51 106.601 152.85 106.742 153.203 106.742C153.557 106.742 153.896 106.601 154.146 106.351C154.396 106.101 154.537 105.762 154.537 105.408V104.389H155.558C155.91 104.386 156.247 104.245 156.495 103.995C156.744 103.745 156.883 103.407 156.883 103.055C156.883 102.703 156.744 102.365 156.495 102.115C156.247 101.865 155.91 101.724 155.558 101.721H154.537V100.7C154.537 100.347 154.396 100.007 154.146 99.7572C153.896 99.5071 153.557 99.3666 153.203 99.3666C152.849 99.3666 152.51 99.5071 152.26 99.7572C152.01 100.007 151.87 100.347 151.87 100.7V101.722H150.85C150.498 101.724 150.161 101.865 149.913 102.115C149.664 102.365 149.525 102.703 149.525 103.055C149.525 103.407 149.664 103.745 149.913 103.995C150.161 104.245 150.498 104.387 150.85 104.389L150.85 104.389ZM168 112.234C168 112.523 167.94 112.808 167.822 113.072C167.817 113.081 167.814 113.089 167.811 113.096C167.693 113.351 167.525 113.579 167.317 113.767C167.253 113.825 167.207 113.899 167.184 113.982C167.161 114.066 167.164 114.155 167.193 114.237C167.282 114.512 167.312 114.803 167.281 115.09C167.251 115.377 167.16 115.655 167.015 115.905V115.907C166.801 116.279 166.475 116.575 166.084 116.752C165.855 116.857 165.608 116.92 165.356 116.937C165.339 117.188 165.278 117.435 165.174 117.664C164.995 118.055 164.699 118.381 164.327 118.595C164.319 118.6 164.31 118.605 164.301 118.608C164.058 118.745 163.789 118.831 163.511 118.861C163.223 118.891 162.932 118.861 162.657 118.772C162.575 118.744 162.486 118.741 162.402 118.764C162.319 118.786 162.244 118.833 162.187 118.897C161.896 119.221 161.509 119.445 161.082 119.535C160.656 119.626 160.212 119.579 159.814 119.401C159.807 119.398 159.798 119.394 159.791 119.391C159.536 119.274 159.308 119.106 159.12 118.897C159.063 118.833 158.988 118.787 158.905 118.764C158.821 118.741 158.732 118.744 158.649 118.773C158.374 118.861 158.084 118.891 157.797 118.861C157.509 118.83 157.231 118.739 156.981 118.594C156.731 118.45 156.513 118.254 156.342 118.021C156.172 117.787 156.053 117.52 155.992 117.237C155.975 117.153 155.934 117.075 155.874 117.014C155.812 116.954 155.735 116.913 155.65 116.896C155.367 116.835 155.1 116.715 154.865 116.546C154.513 116.289 154.251 115.927 154.116 115.513C153.982 115.098 153.981 114.652 154.115 114.237C154.143 114.155 154.146 114.067 154.124 113.984C154.102 113.9 154.055 113.825 153.99 113.768C153.775 113.574 153.603 113.337 153.487 113.073H153.485C153.367 112.809 153.306 112.523 153.306 112.233C153.306 111.944 153.367 111.658 153.485 111.394C153.488 111.387 153.493 111.379 153.497 111.372C153.613 111.117 153.781 110.888 153.99 110.701C154.055 110.643 154.101 110.568 154.123 110.484C154.145 110.4 154.142 110.312 154.115 110.229C153.982 109.815 153.984 109.369 154.118 108.955C154.253 108.541 154.514 108.18 154.864 107.922C155.099 107.752 155.366 107.633 155.65 107.572C155.734 107.556 155.812 107.514 155.873 107.454C155.934 107.393 155.975 107.315 155.991 107.231C156.052 106.948 156.171 106.68 156.341 106.446C156.511 106.212 156.729 106.016 156.98 105.871C156.989 105.866 156.997 105.863 157.006 105.858C157.254 105.719 157.528 105.633 157.81 105.605C158.093 105.577 158.378 105.608 158.649 105.696C158.731 105.723 158.82 105.726 158.905 105.704C158.988 105.682 159.063 105.635 159.12 105.571C159.411 105.246 159.798 105.022 160.224 104.931C160.651 104.84 161.095 104.887 161.493 105.065C161.501 105.069 161.509 105.073 161.516 105.077C161.771 105.194 161.999 105.362 162.187 105.571C162.244 105.635 162.319 105.682 162.403 105.704C162.486 105.726 162.575 105.723 162.656 105.695C163.071 105.562 163.517 105.562 163.932 105.697C164.346 105.831 164.708 106.093 164.965 106.445C165.135 106.68 165.254 106.947 165.315 107.23C165.332 107.314 165.373 107.392 165.433 107.453C165.494 107.514 165.572 107.555 165.657 107.572C165.94 107.632 166.208 107.751 166.442 107.922C166.676 108.092 166.871 108.311 167.014 108.562C167.159 108.812 167.25 109.09 167.281 109.377C167.311 109.664 167.281 109.954 167.192 110.229C167.163 110.311 167.161 110.4 167.183 110.483C167.205 110.567 167.252 110.643 167.316 110.7C167.532 110.893 167.703 111.129 167.82 111.394H167.822C167.939 111.658 168 111.944 168 112.234ZM165.558 112.234C165.558 111.099 165.165 110 164.445 109.123C163.726 108.246 162.724 107.646 161.612 107.424C160.499 107.203 159.344 107.374 158.344 107.909C157.343 108.444 156.559 109.309 156.125 110.357C155.691 111.405 155.633 112.571 155.963 113.656C156.292 114.742 156.987 115.68 157.931 116.31C158.874 116.94 160.006 117.224 161.135 117.113C162.264 117.002 163.32 116.503 164.122 115.7C164.577 115.245 164.939 114.705 165.185 114.11C165.432 113.515 165.558 112.878 165.558 112.234ZM141.543 112.136C141.568 112.16 141.587 112.189 141.6 112.22C141.614 112.251 141.62 112.285 141.62 112.319V124.237C141.62 124.272 141.613 124.305 141.6 124.337C141.587 124.369 141.568 124.398 141.543 124.422L141.53 124.435C141.483 124.476 141.423 124.498 141.361 124.497H138.26C138.226 124.497 138.192 124.491 138.161 124.478C138.13 124.466 138.101 124.447 138.077 124.423L138.075 124.422H138.077C138.052 124.397 138.033 124.369 138.02 124.337C138.007 124.305 138 124.271 138 124.237V112.319C138 112.285 138.007 112.252 138.02 112.22C138.033 112.189 138.052 112.16 138.077 112.137L138.091 112.121C138.138 112.082 138.198 112.06 138.26 112.06H141.361C141.395 112.06 141.428 112.066 141.46 112.079C141.491 112.092 141.519 112.111 141.543 112.135H141.545L141.543 112.136ZM140.232 113.779C140.232 113.667 140.187 113.56 140.108 113.481C140.029 113.402 139.922 113.357 139.81 113.357C139.698 113.357 139.591 113.402 139.512 113.481C139.433 113.56 139.388 113.667 139.388 113.779V113.8C139.388 113.912 139.433 114.019 139.512 114.098C139.591 114.177 139.698 114.222 139.81 114.222C139.922 114.222 140.029 114.177 140.108 114.098C140.187 114.019 140.232 113.912 140.232 113.8V113.779ZM161.075 114.165C161.181 114.101 161.27 114.014 161.337 113.91C161.403 113.806 161.446 113.689 161.461 113.566C161.475 113.444 161.462 113.32 161.422 113.203C161.382 113.086 161.316 112.98 161.229 112.893C161.183 112.847 161.131 112.807 161.075 112.773V114.165ZM159.839 110.997C159.84 111.137 159.876 111.275 159.945 111.397C160.013 111.519 160.112 111.621 160.232 111.694V110.303C160.176 110.337 160.125 110.377 160.078 110.422C159.926 110.575 159.84 110.782 159.839 110.997ZM163.524 109.362C164.189 110.026 164.602 110.9 164.695 111.835C164.787 112.77 164.552 113.708 164.03 114.489C163.509 115.27 162.732 115.846 161.833 116.119C160.934 116.392 159.968 116.345 159.1 115.985C158.232 115.626 157.516 114.977 157.073 114.148C156.63 113.32 156.488 112.363 156.671 111.442C156.854 110.52 157.351 109.691 158.078 109.095C158.804 108.499 159.714 108.173 160.654 108.173C161.187 108.172 161.715 108.277 162.208 108.481C162.7 108.685 163.148 108.984 163.524 109.362ZM161.075 111.867V110.302C161.195 110.375 161.293 110.477 161.362 110.599C161.43 110.72 161.466 110.858 161.467 110.997C161.467 111.109 161.511 111.216 161.59 111.296C161.669 111.375 161.776 111.419 161.888 111.419C162 111.419 162.108 111.375 162.187 111.296C162.266 111.216 162.31 111.109 162.31 110.997C162.31 110.631 162.189 110.276 161.966 109.986C161.742 109.696 161.429 109.489 161.075 109.396V108.936C161.075 108.881 161.065 108.826 161.043 108.775C161.022 108.724 160.991 108.677 160.952 108.638C160.913 108.599 160.866 108.568 160.815 108.547C160.764 108.525 160.709 108.514 160.654 108.514C160.598 108.514 160.543 108.525 160.492 108.547C160.441 108.568 160.394 108.599 160.355 108.638C160.316 108.677 160.285 108.724 160.264 108.775C160.243 108.826 160.232 108.881 160.232 108.936V109.396C159.878 109.489 159.565 109.697 159.341 109.987C159.118 110.276 158.997 110.632 158.997 110.998C158.997 111.364 159.118 111.72 159.341 112.01C159.565 112.3 159.878 112.507 160.232 112.601V114.165C160.112 114.092 160.014 113.99 159.945 113.868C159.877 113.746 159.841 113.608 159.841 113.468C159.841 113.413 159.83 113.358 159.809 113.307C159.787 113.256 159.756 113.209 159.717 113.17C159.678 113.131 159.631 113.1 159.58 113.079C159.529 113.057 159.474 113.047 159.419 113.047C159.363 113.047 159.309 113.057 159.257 113.079C159.206 113.1 159.16 113.131 159.12 113.17C159.081 113.209 159.05 113.256 159.029 113.307C159.008 113.358 158.997 113.413 158.997 113.468C158.997 113.834 159.118 114.19 159.342 114.48C159.565 114.77 159.878 114.978 160.232 115.072V115.53C160.232 115.641 160.276 115.749 160.355 115.828C160.434 115.907 160.542 115.951 160.653 115.951C160.765 115.951 160.873 115.907 160.952 115.828C161.031 115.749 161.075 115.641 161.075 115.53V115.072C161.429 114.979 161.742 114.771 161.966 114.481C162.189 114.191 162.311 113.835 162.311 113.469C162.311 113.103 162.189 112.748 161.966 112.458C161.742 112.168 161.429 111.96 161.075 111.867L161.075 111.867Z" fill="white"/>
</g>
<defs>
<filter id="filter0_f_10403_11349" x="30.4893" y="66.0059" width="221.533" height="196.076" filterUnits="userSpaceOnUse" color-interpolation-filters="sRGB">
<feFlood flood-opacity="0" result="BackgroundImageFix"/>
<feBlend mode="normal" in="SourceGraphic" in2="BackgroundImageFix" result="shape"/>
<feGaussianBlur stdDeviation="18.75" result="effect1_foregroundBlur_10403_11349"/>
</filter>
<filter id="filter1_f_10403_11349" x="44.2871" y="125.391" width="181.567" height="120.58" filterUnits="userSpaceOnUse" color-interpolation-filters="sRGB">
<feFlood flood-opacity="0" result="BackgroundImageFix"/>
<feBlend mode="normal" in="SourceGraphic" in2="BackgroundImageFix" result="shape"/>
<feGaussianBlur stdDeviation="18.75" result="effect1_foregroundBlur_10403_11349"/>
</filter>
<clipPath id="clip0_10403_11349">
<rect width="30" height="30" fill="white" transform="translate(138 98)"/>
</clipPath>
</defs>
</svg>
