<svg width="14" height="17" viewBox="0 0 14 17" fill="none" xmlns="http://www.w3.org/2000/svg">
<path d="M9.91667 4.43294C9.91667 5.85968 8.76007 7.01628 7.33333 7.01628V8.51628C9.5885 8.51628 11.4167 6.68811 11.4167 4.43294H9.91667ZM7.33333 7.01628C5.9066 7.01628 4.75 5.85968 4.75 4.43294H3.25C3.25 6.68811 5.07817 8.51628 7.33333 8.51628V7.01628ZM4.75 4.43294C4.75 3.00621 5.9066 1.84961 7.33333 1.84961V0.349609C5.07817 0.349609 3.25 2.17778 3.25 4.43294H4.75ZM7.33333 1.84961C8.76007 1.84961 9.91667 3.00621 9.91667 4.43294H11.4167C11.4167 2.17778 9.5885 0.349609 7.33333 0.349609V1.84961ZM12.4167 13.1829C12.4167 13.5512 12.0986 14.0866 11.1227 14.5745C10.1917 15.04 8.85298 15.3496 7.33333 15.3496V16.8496C9.03535 16.8496 10.6133 16.5063 11.7935 15.9162C12.9289 15.3485 13.9167 14.4255 13.9167 13.1829H12.4167ZM7.33333 15.3496C5.81369 15.3496 4.47499 15.04 3.54395 14.5745C2.56806 14.0866 2.25 13.5512 2.25 13.1829H0.75C0.75 14.4255 1.73778 15.3485 2.87313 15.9162C4.05335 16.5063 5.63132 16.8496 7.33333 16.8496V15.3496ZM2.25 13.1829C2.25 12.8146 2.56806 12.2793 3.54395 11.7914C4.47499 11.3258 5.81369 11.0163 7.33333 11.0163V9.51628C5.63132 9.51628 4.05335 9.85962 2.87313 10.4497C1.73778 11.0174 0.75 11.9404 0.75 13.1829H2.25ZM7.33333 11.0163C8.85298 11.0163 10.1917 11.3258 11.1227 11.7914C12.0986 12.2793 12.4167 12.8146 12.4167 13.1829H13.9167C13.9167 11.9404 12.9289 11.0174 11.7935 10.4497C10.6133 9.85962 9.03535 9.51628 7.33333 9.51628V11.0163Z" fill="white"/>
</svg>
