<svg width="17" height="17" viewBox="0 0 17 17" fill="none" xmlns="http://www.w3.org/2000/svg">
<path d="M12.0625 1.71875C12.8438 0.9375 14.125 0.9375 14.9062 1.71875L15.2812 2.09375C16.0625 2.875 16.0625 4.15625 15.2812 4.9375L8.40625 11.8125C8.125 12.0938 7.78125 12.25 7.4375 12.3438L4.59375 13C4.4375 13.0312 4.25 13 4.125 12.875C4 12.75 3.96875 12.5625 4 12.4062L4.65625 9.5625C4.75 9.21875 4.90625 8.875 5.1875 8.59375L12.0625 1.71875ZM14.1875 2.4375C13.8125 2.03125 13.1562 2.03125 12.7812 2.4375L11.9375 3.25L13.75 5.0625L14.5625 4.21875C14.9688 3.84375 14.9688 3.1875 14.5625 2.8125L14.1875 2.4375ZM5.625 9.78125L5.15625 11.8438L7.1875 11.375C7.375 11.3438 7.5625 11.25 7.6875 11.0938L13.0312 5.75L11.25 3.96875L5.90625 9.3125C5.75 9.4375 5.65625 9.625 5.625 9.78125ZM6.5 3C6.75 3 7 3.25 7 3.5C7 3.78125 6.75 4 6.5 4H2.5C1.65625 4 1 4.6875 1 5.5V14.5C1 15.3438 1.65625 16 2.5 16H11.5C12.3125 16 13 15.3438 13 14.5V10.5C13 10.25 13.2188 10 13.5 10C13.75 10 14 10.25 14 10.5V14.5C14 15.9062 12.875 17 11.5 17H2.5C1.09375 17 0 15.9062 0 14.5V5.5C0 4.125 1.09375 3 2.5 3H6.5Z" fill="#9C9C9C"/>
</svg>
