<?xml version="1.0" standalone="no"?>
<!DOCTYPE svg PUBLIC "-//W3C//DTD SVG 20010904//EN"
 "http://www.w3.org/TR/2001/REC-SVG-20010904/DTD/svg10.dtd">
<svg version="1.0" xmlns="http://www.w3.org/2000/svg"
 width="512.000000pt" height="512.000000pt" viewBox="0 0 512.000000 512.000000"
 preserveAspectRatio="xMidYMid meet">

<g transform="translate(0.000000,512.000000) scale(0.100000,-0.100000)"
fill="#000000" stroke="none">
<path d="M2995 4865 c-51 -18 -111 -82 -124 -131 -5 -22 -15 -78 -22 -125
l-12 -85 -82 -35 -82 -35 -79 59 c-44 32 -93 65 -111 73 -42 18 -127 18 -167
-1 -18 -9 -85 -68 -148 -133 -95 -96 -118 -125 -128 -161 -23 -86 -11 -115
113 -289 l28 -39 -33 -81 -33 -81 -70 -11 c-158 -25 -176 -31 -218 -68 -62
-56 -67 -78 -67 -270 0 -157 2 -172 23 -213 36 -67 89 -95 222 -115 l110 -17
33 -83 33 -83 -64 -88 c-87 -119 -98 -156 -76 -238 9 -31 38 -68 128 -158 121
-124 144 -141 202 -152 57 -11 111 10 209 81 l91 65 82 -34 82 -34 17 -105
c20 -126 44 -178 100 -215 40 -27 46 -28 207 -31 185 -4 223 3 276 49 42 37
61 86 80 208 8 52 16 94 17 95 2 1 38 17 80 35 89 38 76 41 190 -46 99 -76
170 -88 256 -44 50 26 238 219 257 264 21 50 19 120 -4 165 -11 20 -44 70 -74
111 l-54 74 33 81 33 81 73 12 c158 26 178 33 223 78 57 57 68 107 63 290 -3
121 -7 146 -26 182 -34 65 -82 91 -208 114 -60 10 -113 20 -117 22 -4 1 -23
38 -42 81 l-34 78 64 88 c74 100 85 124 85 186 0 69 -21 106 -122 210 -122
127 -164 154 -240 154 -68 0 -92 -11 -194 -86 -40 -30 -77 -54 -82 -54 -9 0
-153 58 -159 64 -2 2 -12 54 -23 116 -21 130 -48 179 -115 214 -35 18 -60 21
-200 23 -120 2 -170 -1 -200 -12z m309 -184 c3 -4 15 -66 26 -137 13 -82 27
-138 39 -154 12 -16 47 -36 102 -56 46 -17 113 -45 148 -63 47 -24 72 -31 94
-27 16 3 79 43 139 87 l110 82 90 -90 89 -89 -47 -65 c-98 -132 -124 -173
-124 -195 0 -12 18 -60 40 -106 23 -46 48 -108 57 -138 26 -93 41 -103 179
-124 54 -9 114 -18 132 -21 l32 -6 0 -125 c0 -91 -3 -126 -12 -128 -7 -2 -71
-13 -143 -24 -150 -24 -162 -32 -190 -128 -9 -32 -34 -93 -56 -136 -56 -112
-58 -105 59 -266 l75 -104 -84 -84 c-46 -46 -88 -84 -94 -84 -5 0 -59 36 -119
80 -127 93 -144 97 -239 49 -34 -18 -98 -44 -141 -59 -52 -17 -86 -35 -98 -51
-11 -15 -25 -72 -38 -156 -11 -72 -20 -134 -20 -138 0 -3 -57 -4 -127 -3
l-127 3 -22 138 c-26 161 -36 178 -124 204 -30 8 -91 33 -135 54 -115 56 -127
55 -257 -41 -60 -44 -112 -80 -116 -80 -10 0 -172 163 -172 174 0 5 31 50 68
100 38 50 74 101 80 113 18 33 14 84 -8 121 -20 32 -45 94 -85 205 -22 61 -40
70 -185 91 -63 10 -123 20 -132 22 -16 5 -18 20 -18 129 l0 123 63 10 c34 6
98 16 142 23 97 15 114 30 144 123 12 38 38 100 57 137 51 102 48 117 -46 245
-44 60 -80 113 -80 119 0 6 38 48 84 94 59 59 88 81 97 75 8 -4 59 -41 113
-81 55 -41 111 -76 124 -80 16 -4 54 9 120 40 53 25 117 51 142 58 94 27 101
39 125 209 9 63 18 121 20 128 5 14 240 18 249 3z"/>
<path d="M3121 4125 c-24 -20 -31 -36 -36 -79 -6 -48 -10 -54 -40 -65 -19 -6
-56 -32 -83 -56 -102 -92 -135 -245 -80 -367 54 -117 143 -182 273 -198 88
-11 130 -35 151 -86 19 -44 18 -60 -6 -109 -24 -51 -65 -75 -124 -75 -36 0
-52 6 -80 30 -19 17 -37 44 -41 60 -9 41 -58 80 -101 80 -40 0 -79 -33 -90
-74 -17 -68 78 -211 170 -256 40 -19 44 -24 50 -69 8 -62 44 -101 93 -101 19
0 43 5 54 10 26 15 49 62 49 104 0 32 4 37 44 55 58 25 125 93 156 156 34 69
35 197 3 267 -50 109 -152 181 -279 197 -85 10 -109 22 -134 64 -41 67 -13
164 55 193 75 31 144 3 181 -76 12 -24 32 -52 44 -62 56 -46 150 -1 150 71 0
83 -77 189 -170 236 -46 23 -50 28 -50 61 0 95 -91 146 -159 89z"/>
<path d="M314 2373 c-67 -14 -92 -110 -41 -160 l28 -28 233 0 c129 0 238 -4
243 -8 10 -11 21 -1316 11 -1338 -6 -14 -37 -17 -235 -21 -246 -5 -262 -8
-289 -59 -19 -38 -11 -79 22 -110 26 -24 26 -24 277 -24 242 0 254 1 294 22
47 26 87 64 109 106 l15 29 237 -4 c228 -4 240 -5 317 -32 97 -33 121 -48 350
-211 269 -191 427 -259 660 -286 186 -22 404 14 581 95 109 51 193 109 369
256 88 74 268 224 400 335 132 110 405 339 607 508 322 269 368 311 373 341 9
45 -14 87 -86 157 -105 103 -263 160 -403 145 -127 -13 -164 -33 -557 -302
-204 -140 -373 -254 -375 -254 -2 0 -4 8 -4 18 -1 68 -100 185 -193 228 l-62
29 -410 0 c-398 0 -412 1 -490 23 -102 30 -178 70 -257 138 -172 147 -278 207
-429 244 -73 17 -119 20 -364 20 l-280 1 -30 47 c-18 29 -48 57 -75 72 -44 25
-49 25 -285 26 -132 1 -250 0 -261 -3z m1240 -348 c104 -22 219 -84 312 -166
102 -92 147 -122 251 -171 150 -71 211 -78 656 -78 424 0 424 0 466 -59 28
-39 28 -112 1 -156 -38 -62 -55 -65 -382 -65 -161 0 -372 -3 -468 -7 -174 -6
-175 -7 -202 -34 -47 -47 -35 -114 25 -145 29 -16 75 -17 504 -11 424 6 477 9
520 25 41 16 270 169 888 595 170 117 219 140 304 140 73 -1 167 -31 195 -62
17 -18 5 -30 -316 -298 -1194 -1001 -1164 -977 -1306 -1032 -206 -79 -448 -84
-652 -13 -88 31 -167 74 -285 158 -440 310 -477 324 -859 324 l-213 0 -6 302
c-4 166 -7 406 -7 535 l0 233 253 0 c183 0 271 -4 321 -15z"/>
</g>
</svg>