<svg id="Layer_1" data-name="Layer 1" xmlns="http://www.w3.org/2000/svg" viewBox="0 0 701.21353 236.6506"><defs><style>.cls-1{fill:none;}.cls-2{fill:#f7914b;}.cls-3{fill:#595a5c;}</style></defs><path class="cls-1" d="M471.67028,104.7948a25.43318,25.43318,0,0,0-24.26875,0,22.379,22.379,0,0,0-8.56694,8.71592,25.5248,25.5248,0,0,0-3.00563,10.48494v5.5871a26.31733,26.31733,0,0,0,3.00563,10.52879,22.11093,22.11093,0,0,0,8.56694,8.86491,25.43318,25.43318,0,0,0,24.26875,0,22.29152,22.29152,0,0,0,8.4927-8.86491,27.34451,27.34451,0,0,0,3.15511-13.30147,26.8063,26.8063,0,0,0-3.15511-13.29936A22.56413,22.56413,0,0,0,471.67028,104.7948Z"/><path class="cls-1" d="M271.35951,104.7948a25.43808,25.43808,0,0,0-24.27125,0,22.4048,22.4048,0,0,0-8.56644,8.71592,24.8539,24.8539,0,0,0-2.85365,8.99309v8.55461a25.78953,25.78953,0,0,0,2.85365,9.05313,22.13583,22.13583,0,0,0,8.56644,8.86491,25.43808,25.43808,0,0,0,24.27125,0,22.269,22.269,0,0,0,8.4902-8.86491,27.32331,27.32331,0,0,0,3.15761-13.30147,26.78565,26.78565,0,0,0-3.15761-13.29936A22.54069,22.54069,0,0,0,271.35951,104.7948Z"/><path class="cls-1" d="M366.283,104.7948a25.288,25.288,0,0,0-24.194,0,23.07737,23.07737,0,0,0-8.56694,8.71592,26.27292,26.27292,0,0,0-3.23234,13.29936,26.79837,26.79837,0,0,0,3.23234,13.30147,22.7834,22.7834,0,0,0,8.56694,8.86491,25.288,25.288,0,0,0,24.194,0,22.83528,22.83528,0,0,0,8.56694-8.86491,26.81861,26.81861,0,0,0,3.23035-13.30147,26.29257,26.29257,0,0,0-3.23035-13.29936A23.13128,23.13128,0,0,0,366.283,104.7948Z"/><path class="cls-1" d="M661.64373,104.7948a25.442,25.442,0,0,0-24.27324,0,22.41828,22.41828,0,0,0-8.56644,8.71592,22.77585,22.77585,0,0,0-1.1859,2.53064V137.5332a24.29273,24.29273,0,0,0,1.1859,2.57835,22.14882,22.14882,0,0,0,8.56644,8.86491,25.442,25.442,0,0,0,24.27324,0,22.2811,22.2811,0,0,0,8.48821-8.86491,27.30124,27.30124,0,0,0,3.1576-13.30147,26.76447,26.76447,0,0,0-3.1576-13.29936A22.55318,22.55318,0,0,0,661.64373,104.7948Z"/><path class="cls-2" d="M482.56718,90.74229a42.18893,42.18893,0,0,0-20.88941-5.10912,36.15267,36.15267,0,0,0-17.88529,4.43445,29.18616,29.18616,0,0,0-7.96352,6.55151V64.031q-9.31734-3.77689-18.63419-7.55418V167.98711H435.829V157.38694a27.97715,27.97715,0,0,0,7.66555,6.16772,37.28991,37.28991,0,0,0,18.18326,4.43245,42.16763,42.16763,0,0,0,20.88941-5.10912,37.66658,37.66658,0,0,0,14.50146-14.3506q5.33136-9.24354,5.33459-21.71731a42.82029,42.82029,0,0,0-5.33459-21.6407A37.55692,37.55692,0,0,0,482.56718,90.74229Zm-2.4042,49.36926a22.29152,22.29152,0,0,1-8.4927,8.86491,25.43318,25.43318,0,0,1-24.26875,0,22.11093,22.11093,0,0,1-8.56694-8.86491,26.31733,26.31733,0,0,1-3.00563-10.52879v-5.5871a25.5248,25.5248,0,0,1,3.00563-10.48494,22.379,22.379,0,0,1,8.56694-8.71592,25.43318,25.43318,0,0,1,24.26875,0,22.56413,22.56413,0,0,1,8.4927,8.71592,26.8063,26.8063,0,0,1,3.15511,13.29936A27.34451,27.34451,0,0,1,480.163,140.11155Z"/><path class="cls-2" d="M577.0048,89.391a37.7045,37.7045,0,0,0-17.20662-3.75778A39.45366,39.45366,0,0,0,541.23673,89.842a28.977,28.977,0,0,0-8.19024,6.288V85.53214q-9.31735-3.77709-18.6342-7.55418v88.9579h18.6342V126.359q0-8.11382,2.7814-13.44847a18.54453,18.54453,0,0,1,7.88778-8.04125,24.68682,24.68682,0,0,1,11.72454-2.70454q9.16115,0,14.12526,5.2601,4.95988,5.26015,4.95789,15.92953v43.58148h18.78518V120.9498q0-12.17361-4.43221-19.98728A28.0788,28.0788,0,0,0,577.0048,89.391Z"/><path class="cls-2" d="M687.0381,105.16938a37.54473,37.54473,0,0,0-14.502-14.42709,42.18528,42.18528,0,0,0-20.88742-5.10912,36.127,36.127,0,0,0-17.88279,4.43445,28.92056,28.92056,0,0,0-6.14778,4.6132V64.031q-9.31736-3.77689-18.6342-7.55418V167.98711h18.6342v-8.69923a27.93541,27.93541,0,0,0,5.84582,4.26678,37.29161,37.29161,0,0,0,18.18475,4.43245,42.164,42.164,0,0,0,20.88742-5.10912,37.65428,37.65428,0,0,0,14.502-14.3506q5.33658-9.24354,5.33459-21.71731A42.78486,42.78486,0,0,0,687.0381,105.16938Zm-16.90616,34.94217a22.2811,22.2811,0,0,1-8.48821,8.86491,25.442,25.442,0,0,1-24.27324,0,22.14882,22.14882,0,0,1-8.56644-8.86491,24.29273,24.29273,0,0,1-1.1859-2.57835V116.04136a22.77585,22.77585,0,0,1,1.1859-2.53064,22.41828,22.41828,0,0,1,8.56644-8.71592,25.442,25.442,0,0,1,24.27324,0,22.55318,22.55318,0,0,1,8.48821,8.71592,26.76447,26.76447,0,0,1,3.1576,13.29936A27.30124,27.30124,0,0,1,670.13194,140.11155Z"/><path class="cls-3" d="M282.25441,90.74229a42.1872,42.1872,0,0,0-20.88792-5.10912,36.13993,36.13993,0,0,0-17.88478,4.43445,29.15458,29.15458,0,0,0-7.81354,6.378V64.031q-9.31734-3.77689-18.6342-7.55418V167.98711h18.6342V157.56458a27.98551,27.98551,0,0,0,7.51357,5.99008,37.29164,37.29164,0,0,0,18.18475,4.43245,42.1659,42.1659,0,0,0,20.88792-5.10912,37.653,37.653,0,0,0,14.50146-14.3506q5.3336-9.24354,5.33659-21.71731a42.806,42.806,0,0,0-5.33659-21.6407A37.54348,37.54348,0,0,0,282.25441,90.74229Zm-2.4047,49.36926a22.269,22.269,0,0,1-8.4902,8.86491,25.43808,25.43808,0,0,1-24.27125,0,22.13583,22.13583,0,0,1-8.56644-8.86491,25.78953,25.78953,0,0,1-2.85365-9.05313v-8.55461a24.8539,24.8539,0,0,1,2.85365-8.99309,22.4048,22.4048,0,0,1,8.56644-8.71592,25.43808,25.43808,0,0,1,24.27125,0,22.54069,22.54069,0,0,1,8.4902,8.71592,26.78565,26.78565,0,0,1,3.15761,13.29936A27.32331,27.32331,0,0,1,279.84971,140.11155Z"/><path class="cls-3" d="M379.55216,98.66707a29.68689,29.68689,0,0,0-9.58592-8.59945,36.46147,36.46147,0,0,0-18.03576-4.43445,42.305,42.305,0,0,0-20.81318,5.10912,36.86057,36.86057,0,0,0-14.50146,14.42709,43.25759,43.25759,0,0,0-5.26035,21.6407q0,12.4767,5.26035,21.71731A36.96366,36.96366,0,0,0,331.1173,162.878a42.28339,42.28339,0,0,0,20.81318,5.10912,36.95707,36.95707,0,0,0,18.41047-4.43245,28.69973,28.69973,0,0,0,9.21121-8.31643v12.74888h18.6342V64.031q-9.31735-3.77689-18.6342-7.55418Zm-4.70227,41.44448a22.83528,22.83528,0,0,1-8.56694,8.86491,25.288,25.288,0,0,1-24.194,0,22.7834,22.7834,0,0,1-8.56694-8.86491,26.79837,26.79837,0,0,1-3.23234-13.30147,26.27292,26.27292,0,0,1,3.23234-13.29936,23.07737,23.07737,0,0,1,8.56694-8.71592,25.288,25.288,0,0,1,24.194,0,23.13128,23.13128,0,0,1,8.56694,8.71592,26.29257,26.29257,0,0,1,3.23035,13.29936A26.81861,26.81861,0,0,1,374.84989,140.11155Z"/><path class="cls-3" d="M371.85709,199.95987a13.78886,13.78886,0,0,1,6.39572,1.40427,9.89558,9.89558,0,0,1,4.2442,4.2442,14.75905,14.75905,0,0,1,1.52,7.02529v17.49262h-2.86738V212.8631q0-5.04539-2.55358-7.68428a9.467,9.467,0,0,0-7.139-2.63791,12.32652,12.32652,0,0,0-6.07995,1.43369,9.5698,9.5698,0,0,0-3.92844,4.01473,13.22855,13.22855,0,0,0-1.3474,6.19371v15.94321h-2.86738V187.57049h2.86738v20.93466l-.51581-.91788a11.3466,11.3466,0,0,1,4.53055-5.5916A13.98275,13.98275,0,0,1,371.85709,199.95987Z"/><path class="cls-3" d="M419.00028,230.35572a14.956,14.956,0,0,1-7.65682-1.94951,14.43269,14.43269,0,0,1-5.33271-5.39154,16.64479,16.64479,0,0,1,0-15.74316,14.49639,14.49639,0,0,1,5.33271-5.36213,16.065,16.065,0,0,1,15.3411,0,14.21689,14.21689,0,0,1,5.33467,5.36213,16.86633,16.86633,0,0,1,0,15.74316,14.15669,14.15669,0,0,1-5.33467,5.39154A15.10357,15.10357,0,0,1,419.00028,230.35572Zm0-2.581a12.23547,12.23547,0,0,0,6.19371-1.57686,11.05661,11.05661,0,0,0,4.30108-4.44425,14.87628,14.87628,0,0,0,0-13.221,11.10534,11.10534,0,0,0-4.30108-4.41484,12.23547,12.23547,0,0,0-6.19371-1.57686,12.07,12.07,0,0,0-6.16429,1.57686,11.36037,11.36037,0,0,0-4.303,4.41484,14.64453,14.64453,0,0,0,0,13.221,11.308,11.308,0,0,0,4.303,4.44425A12.07,12.07,0,0,0,419.00028,227.77468Z"/><path class="cls-3" d="M491.60868,199.95987a13.30936,13.30936,0,0,1,6.28,1.40427,9.80384,9.80384,0,0,1,4.15791,4.2442,14.97814,14.97814,0,0,1,1.49057,7.02529v17.49262h-2.86739V212.8631q0-5.04539-2.46532-7.68428a8.95981,8.95981,0,0,0-6.88212-2.63791,11.44172,11.44172,0,0,0-5.85049,1.43369,9.57715,9.57715,0,0,0-3.78526,4.01473,13.44991,13.44991,0,0,0-1.318,6.19371v15.94321h-2.86934V212.8631q0-5.04539-2.46533-7.68428a8.95691,8.95691,0,0,0-6.88211-2.63791,11.44675,11.44675,0,0,0-5.85049,1.43369,9.58924,9.58924,0,0,0-3.78526,4.01473,13.47483,13.47483,0,0,0-1.318,6.19371v15.94321h-2.86738V200.18934h2.75167v8.25893l-.40011-.91788a11.18,11.18,0,0,1,4.41484-5.53472,13.27233,13.27233,0,0,1,7.45677-2.0358,12.34669,12.34669,0,0,1,7.5411,2.26527,10.214,10.214,0,0,1,3.87156,6.73895l-.97475-.40206a11.81512,11.81512,0,0,1,4.53055-6.22313A13.5277,13.5277,0,0,1,491.60868,199.95987Z"/><path class="cls-3" d="M538.98134,230.35572a16.04358,16.04358,0,0,1-8.00005-1.94951,14.17732,14.17732,0,0,1-5.44842-5.39154,15.46946,15.46946,0,0,1-1.97893-7.85687,16.17876,16.17876,0,0,1,1.86321-7.88629,13.85828,13.85828,0,0,1,5.13266-5.36213,14.05533,14.05533,0,0,1,7.34106-1.94951,14.223,14.223,0,0,1,7.31359,1.89263,13.49277,13.49277,0,0,1,5.10324,5.30525,16.17709,16.17709,0,0,1,1.86518,7.88433,2.56425,2.56425,0,0,1-.02942.37264,3.004,3.004,0,0,0-.02942.43148H525.676v-2.23781h24.89055l-1.14734,1.09047a12.44812,12.44812,0,0,0-1.46312-6.28,11.41726,11.41726,0,0,0-4.09906-4.35991,11.38476,11.38476,0,0,0-16.00205,4.35991,13.20311,13.20311,0,0,0-1.49057,6.33688v.51582a12.81951,12.81951,0,0,0,1.63374,6.50947,11.49665,11.49665,0,0,0,4.50309,4.4168,13.33333,13.33333,0,0,0,6.53693,1.57686,13.87761,13.87761,0,0,0,5.36213-1.03163,10.53743,10.53743,0,0,0,4.21674-3.15569l1.66317,1.89263a12.28818,12.28818,0,0,1-4.90516,3.64209A16.39415,16.39415,0,0,1,538.98134,230.35572Z"/><rect class="cls-3" x="573.13437" y="214.81582" width="119.23835" height="0.17053"/><rect class="cls-3" x="217.03397" y="214.81582" width="119.23835" height="0.17053"/><path class="cls-2" d="M169.44744,139.47459a69.95546,69.95546,0,1,1-139.86969,2.39433c0-.74857.01632-1.54154.05075-2.39433H11.0557c-.02356.80113-.03806,1.60045-.03806,2.39433a88.51168,88.51168,0,1,0,176.98992-2.39433Z"/><polygon class="cls-2" points="184.094 118.691 99.544 34.14 27.401 106.285 27.401 15.773 8.841 6.295 8.841 118.691 41.241 118.691 99.544 60.389 157.849 118.691 184.094 118.691"/></svg>