<svg width="307" height="307" viewBox="0 0 307 307" fill="none" xmlns="http://www.w3.org/2000/svg">
<path d="M220.798 81.1993C236.327 88.387 246.436 103.76 246.881 120.866L247.594 148.259L250.06 175.55C251.6 192.593 243.34 209.033 228.749 217.972L205.382 232.286L182.98 248.067C168.991 257.922 150.623 258.989 135.587 250.822L111.507 237.743L86.6391 226.233C71.1102 219.045 61.0017 203.672 60.5564 186.566L59.8434 159.173L57.3777 131.882C55.8379 114.839 64.0971 98.3986 78.6887 89.46L102.055 75.1459L124.457 59.365C138.446 49.5104 156.814 48.4426 171.851 56.61L195.931 69.689L220.798 81.1993Z" fill="#F9FAFB"/>
<g filter="url(#filter0_f_9691_5417)">
<rect x="87.1421" y="134.494" width="132.75" height="96.75" rx="15" transform="rotate(-15 87.1421 134.494)" fill="#CECDD7" fill-opacity="0.4"/>
</g>
<rect x="71.4419" y="55.6211" width="122.25" height="165.75" rx="15" transform="rotate(-15 71.4419 55.6211)" fill="white"/>
<g filter="url(#filter1_f_9691_5417)">
<rect x="113.342" y="188.814" width="109.5" height="23.25" rx="11.625" transform="rotate(-15 113.342 188.814)" fill="#A2A1B5" fill-opacity="0.42"/>
</g>
<rect x="65.0838" y="50.7241" width="132" height="165" rx="14.625" transform="rotate(-15 65.0838 50.7241)" fill="white" stroke="#EFEFEF" stroke-width="0.75"/>
<circle cx="152.892" cy="113.4" r="33.75" fill="#97C3E2"/>
<path d="M167.517 114.092C167.564 115.2 167.169 116.28 166.419 117.097C165.67 117.914 164.627 118.4 163.52 118.449C163.455 118.452 163.39 118.453 163.326 118.453C163.031 118.453 162.738 118.421 162.451 118.358C161.598 119.675 160.479 120.8 159.167 121.66C157.855 122.52 156.377 123.096 154.829 123.352C154.646 123.89 154.281 124.347 153.797 124.644C153.313 124.942 152.74 125.06 152.177 124.98C151.615 124.899 151.098 124.625 150.717 124.204C150.335 123.783 150.113 123.242 150.088 122.674C150.063 122.107 150.237 121.548 150.58 121.095C150.923 120.642 151.414 120.324 151.967 120.194C152.52 120.065 153.101 120.133 153.61 120.386C154.118 120.639 154.522 121.063 154.752 121.582C156.931 121.179 158.899 120.024 160.315 118.319C161.73 116.613 162.501 114.465 162.495 112.249C162.495 107.013 158.236 102.754 153 102.754C147.764 102.754 143.505 107.013 143.505 112.249C143.505 113.868 143.918 115.46 144.707 116.874C144.733 116.921 144.754 116.971 144.766 117.023C144.843 117.235 144.834 117.468 144.744 117.674C144.653 117.879 144.486 118.042 144.279 118.129C143.77 118.343 143.224 118.453 142.673 118.453C142.608 118.453 142.543 118.452 142.477 118.449C141.37 118.399 140.328 117.913 139.579 117.096C138.83 116.279 138.436 115.199 138.482 114.092C138.501 113.65 138.491 113.256 138.481 112.875C138.471 112.517 138.461 112.146 138.477 111.759C138.526 110.678 138.991 109.657 139.775 108.911C140.559 108.166 141.601 107.752 142.683 107.757C144.421 103.782 148.391 100.996 153 100.996C157.609 100.996 161.579 103.782 163.317 107.757C164.399 107.751 165.441 108.164 166.225 108.91C167.01 109.656 167.474 110.677 167.522 111.758C167.539 112.146 167.529 112.516 167.519 112.875C167.509 113.256 167.499 113.65 167.517 114.092ZM160.371 112.249C160.371 113.378 160.111 114.492 159.612 115.505C159.113 116.518 158.388 117.403 157.493 118.092C156.597 118.78 155.556 119.254 154.449 119.476C153.342 119.698 152.198 119.664 151.107 119.374L148.123 121.097C147.972 121.184 147.799 121.224 147.626 121.213C147.452 121.202 147.286 121.139 147.148 121.033C147.01 120.927 146.907 120.783 146.851 120.618C146.795 120.454 146.789 120.276 146.834 120.108L147.597 117.264C146.334 115.899 145.632 114.109 145.629 112.249C145.629 108.183 148.935 104.876 153 104.876C157.065 104.876 160.371 108.183 160.371 112.249ZM150.951 112.249C150.951 112.016 150.858 111.792 150.693 111.628C150.528 111.463 150.305 111.37 150.072 111.37H150.07C149.897 111.37 149.727 111.422 149.582 111.519C149.438 111.616 149.326 111.753 149.259 111.914C149.193 112.074 149.176 112.251 149.21 112.421C149.244 112.592 149.328 112.748 149.451 112.871C149.574 112.994 149.731 113.077 149.901 113.111C150.071 113.145 150.248 113.127 150.409 113.061C150.569 112.994 150.706 112.882 150.803 112.737C150.899 112.593 150.951 112.423 150.951 112.249H150.951ZM153.879 112.249C153.879 112.22 153.877 112.192 153.874 112.163C153.872 112.134 153.867 112.106 153.862 112.077C153.856 112.049 153.849 112.021 153.84 111.994C153.832 111.967 153.822 111.94 153.812 111.913C153.801 111.886 153.788 111.861 153.775 111.835C153.761 111.81 153.747 111.785 153.731 111.762C153.715 111.737 153.698 111.714 153.679 111.692C153.661 111.669 153.642 111.648 153.621 111.628C153.601 111.607 153.58 111.588 153.557 111.569C153.535 111.552 153.512 111.534 153.488 111.518C153.464 111.502 153.439 111.488 153.414 111.474C153.389 111.461 153.362 111.449 153.336 111.438C153.309 111.426 153.283 111.417 153.255 111.409C153.2 111.391 153.144 111.38 153.086 111.375C153 111.367 152.913 111.371 152.829 111.387C152.8 111.393 152.772 111.4 152.745 111.409C152.717 111.417 152.69 111.426 152.664 111.438C152.638 111.449 152.611 111.461 152.586 111.474C152.561 111.488 152.536 111.503 152.512 111.518C152.488 111.534 152.465 111.552 152.443 111.569C152.42 111.588 152.399 111.607 152.379 111.628C152.358 111.648 152.339 111.669 152.321 111.692C152.302 111.714 152.285 111.737 152.27 111.762C152.253 111.785 152.239 111.81 152.225 111.835C152.212 111.86 152.199 111.886 152.189 111.913C152.178 111.939 152.168 111.967 152.159 111.994C152.151 112.021 152.144 112.049 152.138 112.077C152.133 112.106 152.128 112.134 152.125 112.163C152.123 112.192 152.121 112.22 152.121 112.249C152.121 112.278 152.123 112.307 152.125 112.336C152.128 112.364 152.133 112.393 152.138 112.421C152.144 112.449 152.151 112.477 152.159 112.504C152.168 112.532 152.178 112.559 152.189 112.585C152.199 112.612 152.212 112.638 152.225 112.663C152.238 112.688 152.254 112.713 152.27 112.737C152.285 112.761 152.302 112.784 152.321 112.806C152.339 112.829 152.358 112.85 152.379 112.871C152.399 112.891 152.42 112.911 152.443 112.929C152.465 112.947 152.488 112.964 152.512 112.98C152.536 112.996 152.561 113.011 152.586 113.024C152.637 113.051 152.69 113.073 152.745 113.09C152.772 113.098 152.8 113.105 152.829 113.111C152.885 113.122 152.943 113.128 153 113.128C153.233 113.127 153.456 113.035 153.621 112.871C153.662 112.83 153.698 112.785 153.731 112.737C153.747 112.713 153.761 112.688 153.775 112.663C153.788 112.638 153.801 112.612 153.812 112.585C153.823 112.559 153.832 112.531 153.84 112.504C153.849 112.477 153.856 112.449 153.862 112.421C153.867 112.393 153.872 112.364 153.874 112.336C153.877 112.307 153.879 112.278 153.879 112.249L153.879 112.249ZM156.809 112.249C156.809 112.016 156.716 111.792 156.551 111.628C156.386 111.463 156.163 111.37 155.93 111.37H155.928C155.754 111.37 155.585 111.422 155.44 111.519C155.296 111.616 155.184 111.753 155.117 111.914C155.051 112.074 155.034 112.251 155.068 112.422C155.102 112.592 155.186 112.748 155.309 112.871C155.432 112.994 155.589 113.077 155.759 113.111C155.929 113.145 156.106 113.127 156.267 113.061C156.427 112.994 156.564 112.882 156.661 112.737C156.757 112.593 156.809 112.423 156.809 112.249Z" fill="white"/>
<defs>
<filter id="filter0_f_9691_5417" x="53.0098" y="66.0039" width="221.532" height="196.076" filterUnits="userSpaceOnUse" color-interpolation-filters="sRGB">
<feFlood flood-opacity="0" result="BackgroundImageFix"/>
<feBlend mode="normal" in="SourceGraphic" in2="BackgroundImageFix" result="shape"/>
<feGaussianBlur stdDeviation="18.75" result="effect1_foregroundBlur_9691_5417"/>
</filter>
<filter id="filter1_f_9691_5417" x="78.4521" y="125.584" width="181.567" height="120.578" filterUnits="userSpaceOnUse" color-interpolation-filters="sRGB">
<feFlood flood-opacity="0" result="BackgroundImageFix"/>
<feBlend mode="normal" in="SourceGraphic" in2="BackgroundImageFix" result="shape"/>
<feGaussianBlur stdDeviation="18.75" result="effect1_foregroundBlur_9691_5417"/>
</filter>
</defs>
</svg>
