<svg width="307" height="307" viewBox="0 0 307 307" fill="none" xmlns="http://www.w3.org/2000/svg">
<path d="M220.798 81.1993C236.327 88.387 246.436 103.76 246.881 120.866L247.594 148.259L250.06 175.55C251.6 192.593 243.34 209.033 228.749 217.972L205.382 232.286L182.98 248.067C168.991 257.922 150.623 258.989 135.587 250.822L111.507 237.743L86.6391 226.233C71.1102 219.045 61.0017 203.672 60.5564 186.566L59.8434 159.173L57.3777 131.882C55.8379 114.839 64.0971 98.3986 78.6887 89.46L102.055 75.1459L124.457 59.365C138.446 49.5104 156.814 48.4426 171.851 56.61L195.931 69.689L220.798 81.1993Z" fill="#F9FAFB"/>
<g filter="url(#filter0_f_10403_11331)">
<rect x="87.1431" y="134.494" width="132.75" height="96.75" rx="15" transform="rotate(-15 87.1431 134.494)" fill="#CECDD7" fill-opacity="0.4"/>
</g>
<rect x="71.4429" y="55.6211" width="122.25" height="165.75" rx="15" transform="rotate(-15 71.4429 55.6211)" fill="white"/>
<g filter="url(#filter1_f_10403_11331)">
<rect x="113.343" y="188.814" width="109.5" height="23.25" rx="11.625" transform="rotate(-15 113.343 188.814)" fill="#A2A1B5" fill-opacity="0.42"/>
</g>
<rect x="65.0848" y="50.7241" width="132" height="165" rx="14.625" transform="rotate(-15 65.0848 50.7241)" fill="white" stroke="#EFEFEF" stroke-width="0.75"/>
<circle cx="152.893" cy="113.4" r="33.75" fill="#FC8E6A"/>
<g clip-path="url(#clip0_10403_11331)">
<path fill-rule="evenodd" clip-rule="evenodd" d="M150.597 101.864V105.855H151.529V101.864H150.597ZM155.718 108.023V112.718H154.153L153.437 107.442L155.718 108.023ZM164.274 101.951C165.114 102.178 165.737 102.95 165.737 103.86C165.737 104.769 165.114 105.541 164.274 105.768V101.951ZM152.466 106.228L162.752 108.845C163.05 108.921 163.336 108.698 163.336 108.39V99.3287C163.336 99.0212 163.05 98.7985 162.752 98.8743L152.466 101.491V106.228ZM153.366 118.324C151.823 116.448 149.487 115.246 146.883 115.246C142.434 115.246 138.765 118.754 138.506 123.141C138.49 123.412 138.703 123.638 138.974 123.638H153.795C153.337 122.654 153.081 121.558 153.081 120.401C153.081 119.681 153.18 118.985 153.366 118.324ZM161.226 122.976V123.463C161.226 123.722 161.016 123.932 160.757 123.932C160.498 123.932 160.288 123.722 160.288 123.463V122.995C159.891 122.927 159.527 122.702 159.29 122.375C159.139 122.166 159.185 121.873 159.395 121.721C159.604 121.57 159.897 121.616 160.048 121.826C160.165 121.987 160.339 122.078 160.539 122.078H160.877C161.208 122.078 161.481 121.805 161.481 121.474C161.481 121.143 161.208 120.87 160.877 120.87H160.637C159.788 120.87 159.095 120.177 159.095 119.329C159.095 118.613 159.593 117.989 160.288 117.827V117.339C160.288 117.081 160.498 116.871 160.757 116.871C161.016 116.871 161.225 117.081 161.225 117.339V117.808C161.623 117.875 161.987 118.101 162.223 118.428C162.375 118.637 162.328 118.93 162.119 119.082C161.91 119.233 161.617 119.187 161.465 118.977C161.348 118.815 161.174 118.725 160.974 118.725H160.637C160.306 118.725 160.033 118.997 160.033 119.329C160.033 119.66 160.306 119.933 160.637 119.933H160.877C161.725 119.933 162.418 120.625 162.418 121.474C162.418 122.19 161.92 122.814 161.226 122.976ZM160.757 113.663C157.035 113.663 154.019 116.68 154.019 120.401C154.019 124.123 157.035 127.14 160.757 127.14C164.478 127.14 167.495 124.123 167.495 120.401C167.495 116.68 164.478 113.663 160.757 113.663ZM160.757 125.553C157.912 125.553 155.605 123.247 155.605 120.401C155.605 117.556 157.912 115.25 160.757 115.25C163.602 115.25 165.908 117.556 165.908 120.401C165.908 123.247 163.602 125.553 160.757 125.553ZM146.883 105.589C149.388 105.589 151.419 107.619 151.419 110.124C151.419 112.629 149.388 114.66 146.883 114.66C144.378 114.66 142.347 112.629 142.347 110.124C142.347 107.619 144.378 105.589 146.883 105.589Z" fill="white"/>
</g>
<defs>
<filter id="filter0_f_10403_11331" x="53.0107" y="66.0039" width="221.532" height="196.076" filterUnits="userSpaceOnUse" color-interpolation-filters="sRGB">
<feFlood flood-opacity="0" result="BackgroundImageFix"/>
<feBlend mode="normal" in="SourceGraphic" in2="BackgroundImageFix" result="shape"/>
<feGaussianBlur stdDeviation="18.75" result="effect1_foregroundBlur_10403_11331"/>
</filter>
<filter id="filter1_f_10403_11331" x="78.4531" y="125.584" width="181.567" height="120.578" filterUnits="userSpaceOnUse" color-interpolation-filters="sRGB">
<feFlood flood-opacity="0" result="BackgroundImageFix"/>
<feBlend mode="normal" in="SourceGraphic" in2="BackgroundImageFix" result="shape"/>
<feGaussianBlur stdDeviation="18.75" result="effect1_foregroundBlur_10403_11331"/>
</filter>
<clipPath id="clip0_10403_11331">
<rect width="30" height="30" fill="white" transform="translate(138 98)"/>
</clipPath>
</defs>
</svg>
